<svg width="22" height="22" viewBox="0 0 22 22" fill="none" xmlns="http://www.w3.org/2000/svg">
<path d="M20.0144 18.9258L14.759 13.6705C15.777 12.4131 16.3899 10.8153 16.3899 9.07511C16.3899 5.0418 13.1081 1.76001 9.07483 1.76001C5.04152 1.76001 1.75977 5.04176 1.75977 9.07507C1.75977 13.1084 5.04156 16.3902 9.07486 16.3902C10.8151 16.3902 12.4129 15.7773 13.6703 14.7593L18.9256 20.0146C19.0757 20.1648 19.2728 20.2402 19.47 20.2402C19.6671 20.2402 19.8642 20.1648 20.0144 20.0146C20.3155 19.7135 20.3155 19.2269 20.0144 18.9258ZM9.07486 14.8501C5.89009 14.8501 3.2998 12.2598 3.2998 9.07507C3.2998 5.8903 5.89009 3.3 9.07486 3.3C12.2596 3.3 14.8499 5.8903 14.8499 9.07507C14.8499 12.2598 12.2596 14.8501 9.07486 14.8501Z" fill="#8C969F"/>
</svg>
